<svg width="85" height="80" viewBox="0 0 85 80" fill="none" xmlns="http://www.w3.org/2000/svg">
    <g clip-path="url(#clip0)">
        <path fill-rule="evenodd" clip-rule="evenodd"
              d="M0 61.9188H5.67868V52.347H14.372L17.657 46.7271H5.63862V39.4092H21.9135L25.1985 33.7595H0V61.9188ZM61.9748 33.7595H68.5348L79.2412 52.1683V33.7595H84.9199V61.9188H78.3598L67.6535 43.5298V61.9188H61.9748V33.7595ZM47.703 39.4092C47.14 39.4112 46.5891 39.2475 46.12 38.9388C45.6509 38.6301 45.2848 38.1904 45.068 37.6753C44.8512 37.1602 44.7934 36.5929 44.902 36.0453C45.0106 35.4976 45.2807 34.9942 45.6781 34.5989C46.0755 34.2035 46.5823 33.9339 47.1343 33.8243C47.6864 33.7147 48.2588 33.77 48.7791 33.9831C49.2994 34.1962 49.7442 34.5577 50.0572 35.0216C50.3702 35.4856 50.5373 36.0311 50.5373 36.5893C50.5373 37.3355 50.239 38.0512 49.7077 38.5798C49.1765 39.1083 48.4556 39.4066 47.703 39.4092ZM36.3456 39.4092C35.7826 39.4112 35.2317 39.2475 34.7626 38.9388C34.2936 38.6301 33.9274 38.1904 33.7106 37.6753C33.4938 37.1602 33.436 36.5929 33.5447 36.0453C33.6533 35.4976 33.9234 34.9942 34.3208 34.5989C34.7182 34.2035 35.2249 33.9339 35.777 33.8243C36.329 33.7147 36.9014 33.77 37.4217 33.9831C37.9421 34.1962 38.3869 34.5577 38.6999 35.0216C39.0128 35.4856 39.1799 36.0311 39.1799 36.5893C39.1799 37.3355 38.8816 38.0512 38.3504 38.5798C37.8191 39.1083 37.0982 39.4066 36.3456 39.4092ZM56.216 47.8491C56.216 51.5806 54.7208 55.1593 52.0593 57.7979C49.3979 60.4365 45.7881 61.9188 42.0243 61.9188C38.2604 61.9188 34.6507 60.4365 31.9892 57.7979C29.3278 55.1593 27.8326 51.5806 27.8326 47.8491V42.2192H33.5012V47.8491C33.6073 50.0167 34.5505 52.0607 36.1354 53.5575C37.7203 55.0544 39.8253 55.8894 42.0143 55.8894C44.2032 55.8894 46.3082 55.0544 47.8931 53.5575C49.478 52.0607 50.4212 50.0167 50.5273 47.8491V42.2192H56.206L56.216 47.8491Z"
              fill="url(#paint0_linear)"/>
        <path fill-rule="evenodd" clip-rule="evenodd"
              d="M43.7269 11.2598L40.2115 17.2968L33.8918 28.1494H27.3418L35.5343 14.0698L43.7269 0L51.9194 14.0698L60.0919 28.1494H40.4519L43.7269 22.5195H50.2869L43.7269 11.2598ZM0 0H5.67868L12.6894 12.0243L19.6801 0H25.3588V28.1494H19.6801V11.2697L12.6694 23.2841L5.65865 11.2697V28.1494H0V0ZM68.5348 0L73.4523 8.43987L78.3699 0H84.9199L76.7273 14.0698L84.9199 28.1494H78.3699L73.4523 19.6996L68.5348 28.1494H61.9748L70.1673 14.0698L61.9748 0H68.5348Z"
              fill="url(#paint1_linear)"/>
        <path d="M7.52146 75.512H5.00762V73.7942H9.59463V79.434C9.38139 79.509 9.16405 79.572 8.94364 79.6227C8.65663 79.6977 8.36577 79.7573 8.07231 79.8014C7.7418 79.861 7.41129 79.9007 7.07077 79.9305C6.73836 79.9694 6.40396 79.9893 6.06924 79.9901C5.16761 80.0055 4.26996 79.8678 3.41518 79.583C2.70462 79.3379 2.05319 78.949 1.50226 78.4411C1.00076 77.9495 0.617371 77.3522 0.380541 76.6936C0.122753 75.9801 -0.00608149 75.2272 -4.11904e-05 74.4694C-0.000737838 73.9107 0.0665163 73.354 0.200265 72.8112C0.324583 72.2972 0.520067 71.8026 0.781154 71.3417C1.03025 70.8949 1.34406 70.4868 1.71258 70.1303C2.09419 69.752 2.52943 69.4309 3.00455 69.1771C3.49255 68.92 4.01054 68.7232 4.54691 68.5913C5.13695 68.4488 5.7424 68.3788 6.34967 68.3828C6.87988 68.3812 7.40927 68.4244 7.93209 68.5119C8.35689 68.5724 8.77571 68.6687 9.18401 68.7998V70.5474C8.7523 70.4076 8.3103 70.3014 7.86198 70.2296C7.4121 70.1534 6.95629 70.1169 6.4999 70.1204C5.91804 70.1157 5.33939 70.2063 4.78728 70.3885C4.27163 70.5508 3.79769 70.8222 3.39824 71.1839C2.99879 71.5456 2.68335 71.9891 2.47374 72.4836C2.2345 73.0524 2.11849 73.6646 2.13322 74.2807C2.09389 74.8222 2.16691 75.3658 2.34778 75.8781C2.52865 76.3905 2.81353 76.8606 3.18483 77.2595C3.58408 77.6113 4.05025 77.8803 4.55592 78.0508C5.06159 78.2214 5.59655 78.2899 6.12933 78.2524C6.37283 78.2667 6.61696 78.2667 6.86045 78.2524C7.08247 78.2365 7.30324 78.2066 7.52146 78.1631V75.512Z"
              fill="#9B9B9B"/>
        <path d="M26.0398 76.9319H21.7733L20.6716 79.7816H18.4683L22.9451 68.5913H24.838L29.3148 79.7816H27.1315L26.0398 76.9319ZM23.8865 71.2921C23.4859 72.4637 23.1354 73.4368 22.8249 74.2708L22.4443 75.2638H25.3588L24.9682 74.2708C24.6677 73.4765 24.3172 72.5034 23.9166 71.2921H23.8865Z"
              fill="#9B9B9B"/>
        <path d="M44.1575 76.7829C44.4079 75.8992 44.7184 74.9559 45.0789 73.9432L47.082 68.5913H49.9864V79.7816H47.8632V74.112C47.8632 73.2878 47.8632 72.3247 47.9633 71.2225H47.8932C47.7931 71.5403 47.6829 71.8977 47.5527 72.2949C47.4225 72.6921 47.2923 73.0793 47.1521 73.4666L44.8085 79.7816H43.4765L41.1429 73.4765C41.0027 73.0892 40.8625 72.702 40.7323 72.3048C40.6021 71.9077 40.4919 71.5502 40.4018 71.2325H40.3216C40.3918 72.2254 40.4218 73.2183 40.4218 74.112V79.7915H38.3586V68.5913H41.2431L43.2461 73.9233C43.5666 74.807 43.8771 75.7602 44.1575 76.7829Z"
              fill="#9B9B9B"/>
        <path d="M62.095 78.0737H67.6535V79.7816H60.0919V68.5913H67.4031V70.309H62.095V73.2084H66.6019V74.9162H62.095V78.0737Z"
              fill="#9B9B9B"/>
        <path d="M82.8767 76.5744C82.8886 76.3257 82.8143 76.0805 82.6664 75.8794C82.5197 75.7022 82.3349 75.5597 82.1256 75.4623C81.8649 75.3463 81.5931 75.2565 81.3143 75.1943L80.3128 74.9857C79.9097 74.8903 79.5119 74.7743 79.121 74.6382C78.7575 74.5156 78.4185 74.3308 78.1194 74.0921C77.8084 73.8593 77.5578 73.5564 77.3883 73.2084C77.1961 72.7914 77.1036 72.3361 77.1179 71.8779C77.1082 71.3455 77.2141 70.8172 77.4284 70.3289C77.6252 69.9085 77.9164 69.5383 78.2797 69.2466C78.6517 68.9486 79.0811 68.729 79.5416 68.6012C80.0682 68.4476 80.6152 68.374 81.1641 68.3828C81.7728 68.3837 82.3799 68.4435 82.9769 68.5615C83.5126 68.6582 84.0363 68.8113 84.5393 69.0183V70.7658C83.9943 70.5513 83.4313 70.3851 82.8567 70.2693C82.3583 70.1735 81.852 70.1237 81.3444 70.1204C80.7951 70.0861 80.248 70.2139 79.772 70.4878C79.5722 70.5949 79.4058 70.7543 79.291 70.9486C79.1763 71.1429 79.1174 71.3648 79.121 71.5899C79.1111 71.8373 79.1737 72.0821 79.3012 72.2949C79.4292 72.4809 79.5967 72.6368 79.792 72.7516C80.0204 72.8748 80.2624 72.9714 80.5131 73.0396L81.3744 73.2382C81.8552 73.3375 82.3058 73.4566 82.7465 73.5857C83.1609 73.7045 83.5532 73.889 83.9083 74.1318C84.2436 74.3702 84.518 74.683 84.7095 75.0453C84.9115 75.4878 85.0107 75.9697 85 76.4553C85.0149 76.9945 84.898 77.5293 84.6594 78.0142C84.4233 78.4558 84.0789 78.8314 83.6579 79.1064C83.1992 79.4118 82.6859 79.6275 82.1456 79.7418C81.513 79.8941 80.8636 79.9675 80.2126 79.9603C79.6033 79.963 78.9954 79.8997 78.3999 79.7716C77.8825 79.6792 77.3826 79.5084 76.9176 79.2652V77.5773C77.4427 77.8063 77.9896 77.9826 78.5501 78.1035C79.0873 78.2123 79.6343 78.2656 80.1826 78.2624C80.5183 78.2693 80.8538 78.2427 81.1841 78.183C81.4808 78.1403 81.7683 78.0497 82.0354 77.9149C82.277 77.7921 82.4836 77.6111 82.6363 77.3886C82.7989 77.1481 82.8828 76.8638 82.8767 76.5744Z"
              fill="#9B9B9B"/>
    </g>
    <defs>
        <linearGradient id="paint0_linear" x1="0" y1="47.8491" x2="84.9199" y2="47.8491" gradientUnits="userSpaceOnUse">
            <stop stop-color="#00B0B9"/>
            <stop offset="1" stop-color="#005EB8"/>
        </linearGradient>
        <linearGradient id="paint1_linear" x1="0" y1="14.0698" x2="84.9199" y2="14.0698" gradientUnits="userSpaceOnUse">
            <stop stop-color="#C800A1"/>
            <stop offset="1" stop-color="#825DC7"/>
        </linearGradient>
        <clipPath id="clip0">
            <rect width="85" height="80" fill="white"/>
        </clipPath>
    </defs>
</svg>
