<svg width="20" height="20" viewBox="0 0 20 20" fill="none" xmlns="http://www.w3.org/2000/svg">
<rect x="0.5" y="0.5" width="19" height="19" rx="3.5" fill="white" stroke="#BDBDBD"/>
<path d="M5.70711 8.29289C5.31658 7.90237 4.68342 7.90237 4.29289 8.29289C3.90237 8.68342 3.90237 9.31658 4.29289 9.70711L5.70711 8.29289ZM9 13L8.29289 13.7071L9 14.4142L9.70711 13.7071L9 13ZM15.7071 7.70711C16.0976 7.31658 16.0976 6.68342 15.7071 6.29289C15.3166 5.90237 14.6834 5.90237 14.2929 6.29289L15.7071 7.70711ZM4.29289 9.70711L8.29289 13.7071L9.70711 12.2929L5.70711 8.29289L4.29289 9.70711ZM9.70711 13.7071L15.7071 7.70711L14.2929 6.29289L8.29289 12.2929L9.70711 13.7071Z" fill="#00AFB9"/>
</svg>
