<svg width="32" height="67" viewBox="0 0 32 67" fill="none" xmlns="http://www.w3.org/2000/svg">
    <g clip-path="url(#clip0_2_56)">
        <mask id="mask0_2_56" style="mask-type:alpha" maskUnits="userSpaceOnUse" x="0" y="0" width="36" height="67">
            <path d="M36 0H0V67H36V0Z" fill="white"/>
        </mask>
        <g mask="url(#mask0_2_56)">
            <path fill-rule="evenodd" clip-rule="evenodd" d="M12.0001 338C14.2092 338 16.0001 336.209 16.0001 334V61L32.0001 45V21L16.0001 5V-268C16.0001 -270.209 14.2093 -272 12.0001 -272H-674V338H12.0001Z" fill="white"/>
            <path fill-rule="evenodd" clip-rule="evenodd" d="M12.0001 338C14.2092 338 16.0001 336.209 16.0001 334V61L32.0001 45V21L16.0001 5V-268C16.0001 -270.209 14.2093 -272 12.0001 -272H-674V338H12.0001Z" fill="#835BC6" fill-opacity="0.08"/>
        </g>
        <path fill-rule="evenodd" clip-rule="evenodd" d="M29.5909 25H21.4091C21.1832 25 21 24.7761 21 24.5C21 24.2239 21.1832 24 21.4091 24H29.5909C29.8168 24 30 24.2239 30 24.5C30 24.7761 29.8168 25 29.5909 25Z" fill="#00AFB9"/>
        <path fill-rule="evenodd" clip-rule="evenodd" d="M25 28.5909V20.4091C25 20.1832 25.2239 20 25.5 20C25.7761 20 26 20.1832 26 20.4091V28.5909C26 28.8168 25.7761 29 25.5 29C25.2239 29 25 28.8168 25 28.5909Z" fill="#00AFB9"/>
        <path d="M14 34.627C16.7301 34.627 18.9432 32.472 18.9432 29.813C18.9432 27.155 16.7301 25 14 25C11.2699 25 9.0567 27.155 9.0567 29.813C9.0567 32.472 11.2699 34.627 14 34.627Z" fill="#00AFB9"/>
        <path d="M14 41C17.8663 41 21 39.705 21 38.822C21 37.396 19.199 35.343 16.6438 34.432C15.8608 34.859 14.9593 35.103 13.9998 35.103C13.0404 35.103 12.1392 34.859 11.3558 34.432C8.8011 35.343 7 37.396 7 38.822C7 39.705 10.1341 41 14 41Z" fill="#00AFB9"/>
    </g>
    <defs>
        <clipPath id="clip0_2_56">
            <rect width="32" height="67" fill="white"/>
        </clipPath>
    </defs>
</svg>
