<?xml version="1.0" encoding="UTF-8"?>
<svg width="32px" height="67px" viewBox="0 0 32 67" version="1.1" xmlns="http://www.w3.org/2000/svg" xmlns:xlink="http://www.w3.org/1999/xlink">
    <defs>
        <rect id="path-1" x="0" y="0" width="36" height="67"></rect>
    </defs>
    <g id="Page-1" stroke="none" stroke-width="1" fill="none" fill-rule="evenodd">
        <g id="left">
            <mask id="mask-2" fill="white">
                <use xlink:href="#path-1"></use>
            </mask>
            <g id="Mask"></g>
            <g mask="url(#mask-2)">
                <g transform="translate(-674.000000, -272.000000)">
                    <g id="Group" stroke-width="1" fill="none" fill-rule="evenodd">
                        <path d="M686.00006,610 C688.2092,610 690.0001,608.209 690.0001,606 L690.0001,333 L706.0001,317 L706.0001,293 L690.0001,277 L690.0001,4.0001 C690.0001,1.7909 688.20926,0 686.00012,0 L0,0 L0,610 L686.00006,610 Z" id="Path" fill="#FFFFFF"></path>
                        <path d="M686.00006,610 C688.2092,610 690.0001,608.209 690.0001,606 L690.0001,333 L706.0001,317 L706.0001,293 L690.0001,277 L690.0001,4.0001 C690.0001,1.7909 688.20926,0 686.00012,0 L0,0 L0,610 L686.00006,610 Z" id="Path" fill-opacity="0.08" fill="#835BC6"></path>
                    </g>
                    <path d="M697.7504,303.997 C697.6224,303.915 696.6128,303.312 696.2128,303.128 L695.7168,301.928 C695.864,301.531 696.1472,300.419 696.1968,300.226 C696.2167,300.137 696.2139,300.046 696.1887,299.959 C696.1636,299.872 696.1168,299.793 696.0528,299.73 L695.2704,298.952 C695.2069,298.888 695.1279,298.841 695.0411,298.816 C694.9543,298.79 694.8625,298.788 694.7744,298.808 C694.6272,298.842 693.4944,299.128 693.0721,299.288 L691.8721,298.792 C691.6977,298.408 691.1105,297.424 691.0033,297.254 C690.9559,297.177 690.8893,297.113 690.8101,297.068 C690.7308,297.024 690.6414,297 690.5505,297 L689.44965,297 C689.35926,297 689.27034,297.023 689.19117,297.067 C689.112,297.11 689.04516,297.173 688.99685,297.25 C688.91525,297.378 688.31206,298.387 688.12806,298.787 L686.92806,299.283 C686.53126,299.136 685.41926,298.853 685.22566,298.803 C685.13755,298.783 685.04585,298.786 684.95911,298.811 C684.87237,298.836 684.79343,298.883 684.72966,298.947 L683.95206,299.73 C683.88784,299.793 683.84092,299.872 683.81572,299.959 C683.79052,300.046 683.78789,300.138 683.80806,300.226 C683.84166,300.373 684.12806,301.506 684.28806,301.928 L683.79206,303.128 C683.40806,303.302 682.42406,303.89 682.25446,303.997 C682.17684,304.044 682.11269,304.111 682.06815,304.19 C682.0236,304.269 682.00006,304.359 682.00006,304.45 L682.00006,305.549 C682.00006,305.639 682.02301,305.728 682.06665,305.807 C682.11029,305.886 682.17325,305.953 682.24966,306.002 C682.37766,306.083 683.38726,306.686 683.78726,306.87 L684.28326,308.07 C684.13606,308.467 683.85286,309.579 683.80326,309.773 C683.78339,309.861 683.78618,309.953 683.81136,310.039 C683.83654,310.126 683.8833,310.205 683.94726,310.269 L684.72486,311.046 C684.78846,311.111 684.86739,311.158 684.95418,311.183 C685.04097,311.208 685.13276,311.211 685.22086,311.19 C685.36806,311.157 686.50086,310.87 686.92326,310.71 L688.12326,311.206 C688.29766,311.59 688.88485,312.574 688.99205,312.744 C689.03967,312.823 689.10686,312.888 689.18707,312.932 C689.26727,312.977 689.35775,313.001 689.44965,313.00003 L690.5489,313.00003 C690.6393,313.00003 690.7282,312.977 690.8073,312.933 C690.8865,312.89 690.9533,312.827 691.0017,312.75 C691.0833,312.622 691.6865,311.613 691.8705,311.213 L693.0705,310.717 C693.4673,310.864 694.5792,311.147 694.7728,311.197 C694.861,311.217 694.9527,311.214 695.0394,311.189 C695.1261,311.164 695.2051,311.117 695.2688,311.053 L696.0464,310.275 C696.1107,310.212 696.1576,310.133 696.1828,310.046 C696.208,309.959 696.2106,309.867 696.1904,309.779 C696.1568,309.632 695.8704,308.499 695.7104,308.077 L696.2064,306.877 C696.5904,306.702 697.5744,306.115 697.744,306.008 C697.8227,305.96 697.8876,305.893 697.9324,305.813 C697.9773,305.733 698.0006,305.642 698.000021,305.55 L698.000021,304.45 C698.0008,304.359 697.9782,304.27 697.9345,304.191 C697.8908,304.111 697.8274,304.045 697.7504,303.997 Z M690.0001,308.483 C689.31051,308.483 688.63664,308.277 688.06366,307.894 C687.49067,307.51 687.04431,306.965 686.78102,306.328 C686.51773,305.691 686.44933,304.99 686.58447,304.313 C686.71962,303.637 687.05224,303.016 687.54026,302.529 C688.02829,302.042 688.64981,301.711 689.32623,301.577 C690.0026,301.443 690.7036,301.513 691.3404,301.777 C691.9772,302.041 692.5213,302.489 692.9039,303.063 C693.2864,303.636 693.4903,304.31 693.489602,305 C693.4875,305.924 693.119,306.81 692.4648,307.463 C691.8107,308.116 690.9243,308.483 690.0001,308.483 Z" id="Shape" fill="#00AFB9" fill-rule="nonzero"></path>
                </g>
            </g>
        </g>
    </g>
</svg>
