<svg width="42" height="31" viewBox="0 0 42 31" fill="none" xmlns="http://www.w3.org/2000/svg">
<path fill-rule="evenodd" clip-rule="evenodd" d="M0 30.5952H2.80594V25.8656H7.10145L8.72464 23.0887H2.78614V19.4728H10.8279L12.451 16.6812H0V30.5952ZM30.6228 16.6812H33.8643L39.1545 25.7773V16.6812H41.9604V30.5952H38.719L33.4288 21.5089V30.5952H30.6228V16.6812ZM23.5709 19.4728C23.2927 19.4738 23.0205 19.3929 22.7887 19.2404C22.5569 19.0878 22.376 18.8706 22.2689 18.6161C22.1618 18.3615 22.1332 18.0812 22.1869 17.8106C22.2406 17.54 22.374 17.2913 22.5704 17.0959C22.7667 16.9006 23.0171 16.7674 23.2899 16.7132C23.5627 16.659 23.8455 16.6863 24.1026 16.7917C24.3597 16.897 24.5795 17.0756 24.7342 17.3048C24.8888 17.534 24.9714 17.8036 24.9714 18.0794C24.9714 18.4481 24.824 18.8018 24.5615 19.063C24.299 19.3241 23.9428 19.4715 23.5709 19.4728ZM17.959 19.4728C17.6808 19.4738 17.4086 19.3929 17.1768 19.2404C16.9451 19.0878 16.7641 18.8706 16.657 18.6161C16.5499 18.3615 16.5213 18.0812 16.575 17.8106C16.6287 17.54 16.7621 17.2913 16.9585 17.0959C17.1549 16.9006 17.4053 16.7674 17.678 16.7132C17.9508 16.659 18.2336 16.6863 18.4907 16.7917C18.7478 16.897 18.9676 17.0756 19.1223 17.3048C19.2769 17.534 19.3595 17.8036 19.3595 18.0794C19.3595 18.4481 19.2121 18.8018 18.9496 19.063C18.6871 19.3241 18.3309 19.4715 17.959 19.4728ZM27.7773 23.6431C27.7773 25.4869 27.0385 27.2552 25.7234 28.559C24.4084 29.8627 22.6247 30.5952 20.7649 30.5952C18.9051 30.5952 17.1215 29.8627 15.8064 28.559C14.4914 27.2552 13.7526 25.4869 13.7526 23.6431V20.8613H16.5536V23.6431C16.606 24.7141 17.072 25.7241 17.8551 26.4637C18.6383 27.2034 19.6784 27.6159 20.76 27.6159C21.8416 27.6159 22.8817 27.2034 23.6648 26.4637C24.4479 25.7241 24.914 24.7141 24.9664 23.6431V20.8613H27.7724L27.7773 23.6431Z" fill="url(#paint0_linear)"/>
<path fill-rule="evenodd" clip-rule="evenodd" d="M21.6062 5.56365L19.8692 8.54663L16.7466 13.9091H13.5101L17.5581 6.95211L21.6062 0L25.6543 6.95211L29.6925 13.9091H19.988L21.6062 11.1273H24.8476L21.6062 5.56365ZM0 0H2.80594L6.27006 5.94143L9.72428 0H12.5302V13.9091H9.72428V5.56856L6.26016 11.5051L2.79604 5.56856V13.9091H0V0ZM33.8643 0L36.2941 4.17029L38.7239 0H41.9604L37.9123 6.95211L41.9604 13.9091H38.7239L36.2941 9.73394L33.8643 13.9091H30.6228L34.6709 6.95211L30.6228 0H33.8643Z" fill="url(#paint1_linear)"/>
<defs>
<linearGradient id="paint0_linear" x1="0" y1="23.6431" x2="41.9604" y2="23.6431" gradientUnits="userSpaceOnUse">
<stop stop-color="#00B0B9"/>
<stop offset="1" stop-color="#005EB8"/>
</linearGradient>
<linearGradient id="paint1_linear" x1="0" y1="6.95211" x2="41.9604" y2="6.95211" gradientUnits="userSpaceOnUse">
<stop stop-color="#C800A1"/>
<stop offset="1" stop-color="#825DC7"/>
</linearGradient>
</defs>
</svg>
