<svg width="15" height="16" viewBox="0 0 15 16" fill="none" xmlns="http://www.w3.org/2000/svg">
    <path d="M7.28427 9.62676C10.0144 9.62676 12.2275 7.47174 12.2275 4.81338C12.2275 2.15502 10.0144 0 7.28427 0C4.55418 0 2.341 2.15502 2.341 4.81338C2.341 7.47174 4.55418 9.62676 7.28427 9.62676Z"
          fill="#00AFB9"/>
    <path d="M7.2843 16C11.1506 16 14.2843 14.7053 14.2843 13.8223C14.2843 12.3958 12.4833 10.343 9.92813 9.43207C9.14513 9.85895 8.24364 10.1034 7.28409 10.1034C6.32475 10.1034 5.42348 9.85895 4.64005 9.43207C2.08535 10.3428 0.284302 12.3958 0.284302 13.8223C0.284302 14.7053 3.41843 16 7.2843 16Z"
          fill="#00AFB9"/>
</svg>
