<svg width="16" height="16" viewBox="0 0 16 16" fill="none" xmlns="http://www.w3.org/2000/svg">
    <path d="M15.7504 6.9968C15.6224 6.9152 14.6128 6.312 14.2128 6.128L13.7168 4.928C13.864 4.5312 14.1472 3.4192 14.1968 3.2256C14.2167 3.13749 14.2139 3.04579 14.1887 2.95905C14.1636 2.87231 14.1168 2.79337 14.0528 2.7296L13.2704 1.952C13.2069 1.88778 13.1279 1.84086 13.0411 1.81566C12.9543 1.79046 12.8625 1.78782 12.7744 1.808C12.6272 1.8416 11.4944 2.128 11.072 2.288L9.87205 1.792C9.69765 1.408 9.11045 0.424 9.00325 0.2544C8.95587 0.176783 8.88935 0.112631 8.81006 0.0680877C8.73078 0.0235439 8.64139 9.96616e-05 8.55045 0L7.44965 0C7.35926 4.52862e-05 7.27034 0.0229535 7.19117 0.0665935C7.112 0.110234 7.04516 0.173188 6.99685 0.2496C6.91525 0.3776 6.31205 1.3872 6.12806 1.7872L4.92806 2.2832C4.53126 2.136 3.41926 1.8528 3.22566 1.8032C3.13755 1.78333 3.04585 1.78612 2.95911 1.8113C2.87237 1.83648 2.79343 1.88324 2.72966 1.9472L1.95206 2.7296C1.88784 2.7932 1.84092 2.87213 1.81572 2.95892C1.79052 3.04571 1.78789 3.1375 1.80806 3.2256C1.84166 3.3728 2.12806 4.5056 2.28806 4.928L1.79206 6.128C1.40806 6.3024 0.424061 6.8896 0.254461 6.9968C0.176844 7.04418 0.112692 7.1107 0.0681487 7.18998C0.0236049 7.26927 0.000160697 7.35866 6.10352e-05 7.4496L6.10352e-05 8.5488C0.000106321 8.63919 0.0230145 8.72811 0.0666545 8.80728C0.110295 8.88645 0.173249 8.95329 0.249661 9.00159C0.377661 9.08319 1.38726 9.68639 1.78726 9.87039L2.28326 11.0704C2.13606 11.4672 1.85286 12.5792 1.80326 12.7728C1.78339 12.8609 1.78618 12.9526 1.81136 13.0393C1.83654 13.1261 1.8833 13.205 1.94726 13.2688L2.72486 14.0464C2.78846 14.1106 2.86739 14.1575 2.95418 14.1827C3.04097 14.2079 3.13276 14.2106 3.22086 14.1904C3.36806 14.1568 4.50086 13.8704 4.92326 13.7104L6.12326 14.2064C6.29766 14.5904 6.88485 15.5744 6.99205 15.744C7.03967 15.8226 7.10686 15.8875 7.18707 15.9324C7.26727 15.9773 7.35775 16.0006 7.44965 16H8.54885C8.63925 15.9999 8.72817 15.977 8.80734 15.9334C8.88651 15.8898 8.95335 15.8268 9.00165 15.7504C9.08325 15.6224 9.68645 14.6128 9.87045 14.2128L11.0705 13.7168C11.4673 13.864 12.5792 14.1472 12.7728 14.1968C12.861 14.2167 12.9527 14.2139 13.0394 14.1887C13.1261 14.1635 13.2051 14.1168 13.2688 14.0528L14.0464 13.2752C14.1107 13.2116 14.1576 13.1327 14.1828 13.0459C14.208 12.9591 14.2106 12.8673 14.1904 12.7792C14.1568 12.632 13.8704 11.4992 13.7104 11.0768L14.2064 9.87679C14.5904 9.70239 15.5744 9.11519 15.744 9.00799C15.8227 8.96038 15.8876 8.89319 15.9324 8.81298C15.9773 8.73278 16.0006 8.6423 16 8.55039V7.4496C16.0008 7.35905 15.9782 7.26985 15.9345 7.19055C15.8908 7.11126 15.8274 7.04454 15.7504 6.9968V6.9968ZM8.00005 11.4832C7.31051 11.4826 6.63664 11.2775 6.06366 10.8939C5.49067 10.5102 5.04431 9.96532 4.78102 9.32803C4.51773 8.69073 4.44933 7.98967 4.58447 7.3135C4.71962 6.63732 5.05224 6.01641 5.54026 5.52928C6.02829 5.04215 6.64981 4.71067 7.32623 4.57677C8.00265 4.44286 8.70358 4.51255 9.3404 4.77701C9.97721 5.04147 10.5213 5.48883 10.9039 6.06252C11.2864 6.6362 11.4903 7.31045 11.4896 8C11.4875 8.92425 11.119 9.80996 10.4648 10.4629C9.81069 11.1159 8.92431 11.4828 8.00005 11.4832Z"
          fill="#00AFB9"/>
</svg>
