<?xml version="1.0" standalone="no"?>
<!DOCTYPE svg PUBLIC "-//W3C//DTD SVG 20010904//EN"
 "http://www.w3.org/TR/2001/REC-SVG-20010904/DTD/svg10.dtd">
<svg version="1.0" xmlns="http://www.w3.org/2000/svg"
 width="700.000000pt" height="700.000000pt" viewBox="0 0 700.000000 700.000000"
 preserveAspectRatio="xMidYMid meet">
<metadata>
Created by potrace 1.14, written by Peter Selinger 2001-2017
</metadata>
<g transform="translate(0.000000,700.000000) scale(0.100000,-0.100000)"
fill="#000000" stroke="none">
<path d="M660 4761 l0 -919 185 0 185 0 0 551 0 552 60 -105 c33 -58 64 -112
69 -120 6 -8 44 -73 86 -145 41 -71 82 -141 90 -155 8 -14 46 -77 83 -141 l68
-116 21 31 c11 17 112 190 224 383 112 194 206 353 209 353 3 0 5 -244 5 -542
l0 -543 185 0 185 0 0 917 0 918 -185 0 -185 0 -92 -158 c-50 -86 -150 -258
-222 -381 -71 -123 -132 -229 -134 -235 -2 -6 -7 -9 -9 -6 -6 5 -305 515 -343
585 -12 22 -42 74 -67 115 l-45 75 -186 3 -187 2 0 -919z"/>
<path d="M3335 5372 c-98 -169 -209 -359 -246 -422 -36 -63 -97 -167 -134
-230 -37 -63 -78 -133 -90 -155 -13 -22 -108 -186 -212 -365 -104 -179 -192
-333 -196 -342 -5 -16 10 -17 205 -15 l212 2 315 542 c174 297 320 542 324
543 7 1 257 -414 257 -425 0 -2 38 -67 85 -146 l85 -144 -213 -3 c-236 -3
-211 5 -256 -76 -24 -42 -123 -212 -150 -257 l-22 -37 641 0 640 -1 -14 27
c-8 15 -69 122 -136 237 -68 116 -131 225 -142 244 -11 19 -115 199 -233 400
-117 201 -222 382 -232 401 -11 19 -41 70 -67 113 -25 43 -46 83 -46 88 0 5
-4 9 -8 9 -4 0 -13 12 -20 28 -7 15 -18 36 -25 47 -7 11 -32 54 -55 95 -41 71
-53 93 -78 132 -9 14 -40 -34 -189 -290z"/>
<path d="M4710 5675 c0 -2 32 -59 71 -127 40 -67 80 -136 89 -153 10 -16 85
-146 169 -289 83 -142 151 -260 151 -263 0 -2 11 -20 24 -40 14 -20 22 -42 18
-51 -5 -14 -128 -228 -162 -282 -10 -17 -110 -188 -212 -365 -38 -66 -87 -149
-108 -185 -22 -36 -39 -68 -39 -72 -1 -4 94 -6 211 -5 l212 2 94 160 c52 88
105 180 119 205 14 25 43 76 65 113 l41 68 20 -33 c12 -18 26 -42 32 -53 49
-87 242 -415 257 -437 l18 -27 210 0 210 -1 -14 28 c-8 15 -101 176 -206 357
-106 182 -202 346 -213 365 -10 19 -37 65 -59 102 l-39 67 24 43 c36 65 313
542 363 626 24 40 44 75 44 78 0 2 12 23 27 47 15 23 38 61 50 85 l23 42 -213
0 -213 0 -99 -171 c-117 -201 -155 -267 -192 -332 -14 -26 -30 -44 -34 -40 -3
5 -20 33 -37 63 -17 30 -52 92 -79 136 -26 45 -82 140 -123 212 l-75 131 -212
1 c-117 0 -213 -2 -213 -5z"/>
<path d="M660 2558 l0 -918 33 0 c17 -1 101 -2 184 -3 l153 -2 2 314 3 315
282 0 281 0 107 180 106 181 -391 3 -390 2 0 239 0 239 529 -2 530 -1 105 181
c58 100 106 183 106 185 0 3 -369 4 -820 4 l-820 0 0 -917z"/>
<path d="M2995 3471 c-91 -22 -147 -92 -147 -183 2 -156 199 -238 309 -128 45
44 62 88 57 151 -8 102 -119 183 -219 160z"/>
<path d="M3726 3469 c-87 -24 -141 -103 -134 -195 11 -128 142 -200 265 -145
115 53 134 226 32 304 -47 35 -113 50 -163 36z"/>
<path d="M4709 3460 c-6 -67 -2 -1813 3 -1816 7 -4 246 -7 338 -5 l25 1 0 591
c0 325 3 593 7 595 5 3 8 1 8 -4 0 -6 43 -83 96 -173 53 -90 106 -182 119
-204 12 -22 30 -54 41 -72 22 -36 211 -362 234 -401 8 -15 25 -43 37 -62 11
-19 31 -53 43 -75 102 -183 111 -195 143 -196 127 -3 390 1 395 5 4 5 7 1765
3 1822 -1 7 -62 10 -183 10 l-183 -1 -2 -589 c-2 -324 -4 -591 -6 -593 -2 -2
-116 189 -252 424 -318 548 -338 582 -396 678 l-48 80 -210 0 c-182 1 -211 -1
-212 -15z"/>
<path d="M2478 2910 c-6 -29 -1 -405 6 -465 34 -288 221 -559 481 -697 181
-96 427 -133 615 -91 36 7 75 16 86 18 31 7 156 61 201 87 163 95 322 273 388
437 63 153 69 195 69 471 l1 254 -183 1 c-175 0 -182 -1 -183 -20 0 -11 -2
-110 -3 -220 -2 -110 -7 -213 -10 -230 -4 -16 -25 -67 -47 -113 -114 -233
-375 -353 -634 -293 -141 34 -277 139 -349 271 -58 106 -68 166 -70 399 l-1
205 -182 1 c-154 0 -182 -2 -185 -15z"/>
</g>
</svg>
